# xmcd CD database file
#
# Track frame offsets:
#	150
#	16674
#	27443
#	40569
#	53959
#	62731
#	78291
#	83840
#	93654
#	103564
#	111727
#	115777
#	122635
#	135379
#
# Disc length: 1899 seconds
#
# Revision: 0
# Processed by: cddbd v1.5.2PL0 Copyright (c) Steve Scherf et al.
# Submitted via: CDex 1.70beta2
#
DISCID=ae07690e
DTITLE=Little Red Suitcase - They'll learn much more than we'll never know
DYEAR=1900
DGENRE=Jazz
TTITLE0=Together we were fearless
TTITLE1=Corriendo
TTITLE2=What a wonderful world
TTITLE3=La vie est belle à Paris
TTITLE4=Too late now
TTITLE5=Morning dream
TTITLE6=Das Geisterschiff
TTITLE7=Auf Zerbrechlichem Eis
TTITLE8=Grasshopper
TTITLE9=Minimal animal
TTITLE10=Dinner is served
TTITLE11=Chinese mirror
TTITLE12=Back through the mirror
TTITLE13=Landscape in a suitcase
EXTD=
EXTT0=
EXTT1=
EXTT2=
EXTT3=
EXTT4=
EXTT5=
EXTT6=
EXTT7=
EXTT8=
EXTT9=
EXTT10=
EXTT11=
EXTT12=
EXTT13=
PLAYORDER=
